<?xml version="1.0" encoding="UTF-8" standalone="no"?>
<!DOCTYPE svg PUBLIC "-//W3C//DTD SVG 1.1//EN" "http://www.w3.org/Graphics/SVG/1.1/DTD/svg11.dtd">
<svg width="100%" height="100%" viewBox="0 0 2481 3508" version="1.1" xmlns="http://www.w3.org/2000/svg" xmlns:xlink="http://www.w3.org/1999/xlink" xml:space="preserve" xmlns:serif="http://www.serif.com/" style="fill-rule:evenodd;clip-rule:evenodd;stroke-linecap:round;stroke-linejoin:round;stroke-miterlimit:2;">
    <g transform="matrix(1,0,0,1,148.566,205.859)">
        <g transform="matrix(0.118802,0,0,0.118247,0,0)">
            <rect x="16" y="16" width="7590" height="2489"/>
        </g>
        <g transform="matrix(0.118802,0,0,0.118247,0,0)">
            <path d="M1228,281L633,2226L1208,2226L1491,1294L1776,2226L2236,2226L2519,1289L2805,2226L4485,2226C4758,2226 4979,1957 4979,1625C4995,1294 4722,1012 4370,996L3826,996C3771,995 3726,949 3727,893C3727,839 3772,794 3826,794L5203,791L5563,1205L4675,2226L5399,2226L5928,1626L6450,2226L7181,2226L6295,1204L7092,281L6365,281L5929,785L5489,281L3663,281C3355,282 3106,563 3107,908C3095,1227 3350,1494 3675,1506L4250,1506C4319,1509 4374,1560 4372,1619C4371,1678 4314,1723 4244,1720C4240,1720 4236,1719 4231,1719L3222,1717L2784,281L2254,281L2004,1101L1755,281L1228,281Z" style="fill:white;"/>
        </g>
        <g transform="matrix(0.118802,0,0,0.118247,0,0)">
            <path d="M1228,281L633,2226L1208,2226L1491,1294L1776,2226L2236,2226L2519,1289L2805,2226L4485,2226C4758,2226 4979,1957 4979,1625C4995,1294 4722,1012 4370,996L3826,996C3771,995 3726,949 3727,893C3727,839 3772,794 3826,794L5203,791L5563,1205L4675,2226L5399,2226L5928,1626L6450,2226L7181,2226L6295,1204L7092,281L6365,281L5929,785L5489,281L3663,281C3355,282 3106,563 3107,908C3095,1227 3350,1494 3675,1506L4250,1506C4319,1509 4374,1560 4372,1619C4371,1678 4314,1723 4244,1720C4240,1720 4236,1719 4231,1719L3222,1717L2784,281L2254,281L2004,1101L1755,281L1228,281Z" style="fill:none;stroke:black;stroke-width:16.04px;"/>
        </g>
    </g>
</svg>
